<svg class="img-fluid" id="outputsvg" xmlns="http://www.w3.org/2000/svg" style="transform: matrix(1.69, 0, 0, 1.69, 0, 0); transform-origin: 50% 50%; cursor: move; transition: transform 200ms ease-in-out; max-height: none;" width="114" height="100" viewBox="0 0 1140 1000"><g id="l5i6e6PtqsxRWg9OJ3bs7RZ" fill="rgb(254,254,253)" style="transform: none;"><g style="transform: none;"><path id="pu7cJAjlF" d="M146 984 c-3 -9 -6 -29 -6 -45 0 -24 4 -29 25 -29 23 0 25 -3 25 -50 l0 -50 35 0 c19 0 35 -4 35 -10 0 -5 -7 -10 -15 -10 -10 0 -15 -11 -16 -32 -1 -24 -3 -27 -6 -10 -4 19 -11 22 -49 22 -37 0 -44 3 -44 20 0 17 -7 20 -40 20 -39 0 -40 -1 -40 -35 0 -24 -5 -35 -15 -35 -8 0 -15 -7 -15 -15 0 -8 -4 -15 -10 -15 -5 0 -10 -16 -10 -35 0 -33 2 -35 35 -35 19 0 35 5 35 10 0 6 18 10 39 10 33 0 40 4 44 23 3 16 5 14 6 -9 1 -29 -2 -32 -36 -38 -21 -3 -57 -6 -80 -6 l-43 0 0 -85 0 -85 35 0 c32 0 35 -2 35 -30 0 -27 -3 -30 -30 -30 -28 0 -30 -3 -30 -35 0 -34 1 -35 40 -35 33 0 40 3 40 20 0 11 5 20 10 20 6 0 10 -13 10 -30 0 -23 -4 -30 -20 -30 -18 0 -20 -7 -20 -55 0 -42 3 -55 15 -55 8 0 15 -7 15 -15 0 -8 -7 -15 -15 -15 -10 0 -15 -10 -15 -34 0 -30 4 -35 28 -38 20 -3 14 -6 -25 -12 -52 -8 -53 -9 -53 -42 0 -32 2 -34 34 -34 68 0 96 11 96 36 0 17 6 24 20 24 16 0 20 7 20 35 0 31 -3 35 -27 36 -17 1 -21 3 -10 6 10 3 17 14 17 29 0 20 5 24 29 24 29 0 29 -1 20 -32 -5 -18 -9 -48 -9 -65 0 -32 2 -33 40 -33 36 0 40 -2 40 -25 0 -23 4 -25 45 -25 25 0 45 -4 45 -10 0 -5 15 -10 34 -10 31 0 34 3 40 35 9 45 26 45 26 0 0 -33 2 -35 35 -35 33 0 35 2 35 35 0 28 -4 35 -20 35 -17 0 -20 7 -20 40 0 38 -2 40 -30 40 -23 0 -30 5 -30 19 0 11 -8 22 -17 24 -10 3 3 5 30 6 47 1 47 1 47 36 0 19 -4 35 -10 35 -5 0 -10 5 -10 10 0 6 11 10 25 10 16 0 25 -6 25 -15 0 -10 10 -15 30 -15 17 0 30 -4 30 -10 0 -5 -7 -10 -15 -10 -10 0 -15 -11 -15 -35 0 -24 5 -35 15 -35 8 0 15 -7 15 -15 0 -10 10 -15 28 -15 51 0 72 -11 72 -36 0 -20 5 -24 33 -24 68 0 107 12 107 31 0 11 5 19 10 19 6 0 10 9 10 20 0 16 7 20 30 20 28 0 30 3 30 34 0 28 -4 35 -22 38 -19 2 -24 10 -26 41 -3 34 -1 37 22 37 19 0 26 5 26 20 0 16 7 20 30 20 28 0 30 3 30 35 0 31 -3 35 -25 35 -20 0 -25 5 -25 24 0 19 -6 26 -27 29 -16 2 29 5 98 6 109 1 128 3 133 18 9 22 -4 103 -16 103 -5 0 -6 25 -2 60 l7 60 -37 0 c-25 0 -36 4 -36 15 0 10 10 15 30 15 25 0 30 4 30 24 0 13 7 26 15 30 17 6 20 51 5 61 -5 3 -10 22 -10 41 0 19 5 34 10 34 6 0 10 11 10 25 0 22 -4 25 -35 25 -23 0 -35 -5 -35 -14 0 -16 -30 -26 -77 -26 -26 0 -33 -4 -33 -20 0 -15 -7 -20 -25 -20 -16 0 -25 6 -25 15 0 8 5 15 10 15 6 0 10 11 10 25 l0 25 -114 0 c-111 0 -115 -1 -119 -22 l-4 -23 -2 23 c-1 18 -7 22 -35 22 -28 0 -35 -4 -39 -22 l-4 -23 -2 23 c-1 18 -7 22 -36 22 -19 0 -35 -4 -35 -10 0 -5 -11 -10 -25 -10 -16 0 -25 -6 -25 -15 0 -10 -10 -15 -30 -15 -23 0 -30 -4 -30 -20 0 -11 -4 -20 -10 -20 -5 0 -10 -13 -10 -30 0 -20 -5 -30 -15 -30 -10 0 -15 -10 -15 -34 0 -33 2 -35 38 -39 21 -2 6 -4 -35 -5 -66 -2 -72 -4 -76 -24 -3 -17 -5 -14 -6 10 -1 22 3 32 14 32 8 0 15 7 15 15 0 8 7 15 15 15 10 0 15 11 15 35 0 19 -4 35 -10 35 -5 0 -10 16 -10 35 0 38 -7 41 -82 29 -27 -5 -38 -12 -41 -28 -3 -14 -5 -10 -6 12 -1 28 2 32 24 32 16 0 25 6 25 15 0 22 -105 21 -114 -1z m664 -109 c0 -20 -5 -25 -25 -25 -14 0 -25 -4 -25 -10 0 -5 -13 -10 -29 -10 -17 0 -33 5 -36 10 -3 6 1 10 9 10 9 0 16 8 16 19 0 15 8 21 33 24 17 2 38 5 45 5 7 1 12 -9 12 -23z m-181 8 c23 -6 23 -7 5 -14 -33 -13 -64 -10 -64 6 0 16 20 19 59 8z m208 -80 c-3 -10 -5 -2 -5 17 0 19 2 27 5 18 2 -10 2 -26 0 -35z m-287 17 c0 -5 -9 -10 -20 -10 -11 0 -20 -4 -20 -10 0 -5 -13 -10 -30 -10 -23 0 -30 4 -30 20 0 17 7 20 50 20 28 0 50 -4 50 -10z m400 -25 c0 -8 -4 -15 -10 -15 -5 0 -10 7 -10 15 0 8 5 15 10 15 6 0 10 -7 10 -15z m-120 -29 c0 -11 -21 -16 -80 -22 -73 -6 -80 -9 -80 -28 0 -49 13 -96 26 -96 8 0 14 -3 14 -7 0 -5 -21 -7 -48 -5 l-47 4 3 39 c4 39 4 39 -31 39 -35 0 -36 -1 -43 -45 -5 -39 -10 -45 -30 -45 -19 0 -24 5 -24 24 0 13 -6 27 -12 29 -7 3 2 6 20 6 27 1 32 5 32 26 0 14 5 25 10 25 6 0 10 6 10 14 0 18 27 25 133 33 48 3 87 10 87 14 0 5 14 9 30 9 19 0 30 -5 30 -14z m220 -55 c0 -13 -26 -21 -66 -21 -27 0 -34 -4 -34 -20 0 -11 -4 -20 -10 -20 -5 0 -10 -16 -10 -35 0 -19 5 -35 10 -35 6 0 10 -4 10 -10 0 -5 -11 -10 -25 -10 -18 0 -25 5 -25 20 0 16 -7 20 -30 20 -20 0 -30 5 -30 15 0 10 10 15 30 15 20 0 30 5 30 15 0 8 9 15 20 15 15 0 20 7 20 24 0 15 7 26 18 29 31 8 92 7 92 -2z m-220 -51 c0 -5 -19 -10 -42 -9 -33 0 -38 2 -23 9 28 12 65 12 65 0z m-450 -10 c0 -5 -9 -10 -20 -10 -16 0 -20 -7 -20 -31 0 -26 -3 -30 -22 -27 -18 2 -24 11 -26 35 -2 20 -10 33 -20 36 -9 3 11 5 46 6 35 1 62 -3 62 -9z m222 -109 c-4 -38 -3 -38 36 -45 46 -7 56 -25 53 -93 -2 -43 -2 -43 34 -43 19 0 35 -4 35 -10 0 -5 -9 -10 -20 -10 -16 0 -20 -7 -20 -36 0 -27 5 -37 20 -41 11 -3 20 -12 20 -19 0 -8 5 -14 10 -14 6 0 10 -6 10 -14 0 -20 -47 -8 -53 15 -3 13 -14 19 -31 19 -14 0 -26 5 -26 10 0 6 5 10 10 10 6 0 10 16 10 35 0 28 -4 35 -20 35 -13 0 -20 7 -20 20 0 16 -7 20 -35 20 -31 0 -35 -3 -35 -25 0 -14 -4 -25 -10 -25 -5 0 -10 7 -10 15 0 8 -4 15 -10 15 -5 0 -10 11 -10 25 0 16 -6 25 -15 25 -8 0 -15 9 -15 20 0 13 -7 20 -20 20 -11 0 -20 7 -20 15 0 9 9 15 25 15 18 0 25 -5 25 -20 0 -16 7 -20 35 -20 33 0 35 2 35 35 0 33 -2 35 -35 35 -19 0 -35 5 -35 10 0 6 9 10 20 10 15 0 20 7 20 25 0 19 5 25 23 25 20 0 22 -4 19 -39z m228 9 c0 -16 -4 -30 -10 -30 -5 0 -10 9 -10 20 0 14 -7 20 -21 20 -11 0 -17 5 -14 10 3 6 17 10 31 10 20 0 24 -5 24 -30z m-670 5 c0 -8 -4 -15 -10 -15 -5 0 -10 -9 -10 -20 0 -15 -7 -20 -28 -20 -26 0 -28 3 -24 29 4 28 13 35 60 40 6 0 12 -6 12 -14z m220 -5 c0 -11 -4 -20 -10 -20 -5 0 -10 -7 -10 -15 0 -11 -10 -15 -32 -14 -24 1 -27 3 -10 6 17 3 22 11 22 34 0 22 5 29 20 29 13 0 20 -7 20 -20z m-90 -80 c0 -5 -9 -10 -20 -10 -11 0 -20 5 -20 10 0 6 9 10 20 10 11 0 20 -4 20 -10z m100 -71 c0 -10 7 -19 15 -19 8 0 15 -3 15 -8 0 -4 -54 -8 -120 -9 -66 -1 -120 3 -120 8 0 5 25 9 55 9 50 0 55 2 55 23 0 20 4 22 50 19 41 -3 50 -7 50 -23z"></path><path id="pN4afiGzk" d="M90 855 c0 -33 2 -35 35 -35 33 0 35 2 35 35 0 33 -2 35 -35 35 -33 0 -35 -2 -35 -35z"></path><path id="ppkIfo8DT" d="M990 395 c0 -32 3 -35 38 -40 63 -11 60 -13 -15 -14 l-73 -1 0 -33 c0 -27 5 -35 28 -44 l27 -11 -32 -1 c-31 -1 -33 -3 -33 -36 0 -33 2 -35 35 -35 31 0 35 3 35 25 0 22 4 25 35 25 28 0 35 4 35 20 0 11 5 20 10 20 6 0 10 -11 10 -25 0 -20 5 -25 25 -25 24 0 25 2 25 65 0 63 -1 65 -25 65 -22 0 -25 4 -25 40 l0 40 -50 0 -50 0 0 -35z"></path><path id="pBqwXQXhd" d="M0 155 c0 -48 2 -55 20 -55 13 0 20 7 20 20 0 11 5 20 10 20 6 0 10 16 10 35 0 32 -2 35 -30 35 -30 0 -30 -1 -30 -55z"></path><path id="pzvVAK1Ls" d="M1030 175 c0 -19 5 -35 10 -35 6 0 10 -11 10 -25 0 -22 4 -25 40 -25 39 0 40 1 40 35 0 19 -4 35 -10 35 -5 0 -10 11 -10 25 0 23 -4 25 -40 25 -39 0 -40 -1 -40 -35z"></path><path id="pPgpQtUm4" d="M950 125 c0 -33 2 -35 35 -35 33 0 35 2 35 35 0 33 -2 35 -35 35 -33 0 -35 -2 -35 -35z"></path><path id="p9xakbvh9" d="M580 55 l0 -35 55 0 55 0 0 35 0 35 -55 0 -55 0 0 -35z"></path><path id="poXsZMSa4" d="M1000 45 c0 -34 1 -35 40 -35 39 0 40 1 40 35 0 34 -1 35 -40 35 -39 0 -40 -1 -40 -35z"></path><path id="p14vFz8ATN" d="M730 35 l0 -35 105 0 c103 0 105 0 105 23 0 21 -7 24 -83 35 -126 18 -127 18 -127 -23z"></path><path id="pUeprjyxV" d="M160 20 c0 -16 7 -20 35 -20 28 0 35 4 35 20 0 16 -7 20 -35 20 -28 0 -35 -4 -35 -20z"></path></g></g><g id="l2EPFyoPrvDdmLU5Fx44NaP" fill="rgb(249,246,240)" style="transform: none;"><g style="transform: none;"><path id="pv6z9FKkL" d="M1 500 l0 -499 570 -1 569 0 0 244 c0 224 -1 245 -17 249 -16 4 -16 5 -1 6 15 1 17 24 17 251 l1 250 -570 -1 -570 0 1 -499z m144 -260 c17 -7 14 -9 -13 -9 -20 -1 -31 3 -27 9 7 12 13 12 40 0z m603 -68 c8 -6 2 -9 -17 -9 -17 0 -28 4 -25 9 7 10 25 10 42 0z m12 -52 c0 -5 -7 -10 -15 -10 -8 0 -15 5 -15 10 0 6 7 10 15 10 8 0 15 -4 15 -10z"></path></g></g><g id="lTdcHDBZfU6TcnEJGsXo2X" fill="rgb(242,234,221)" style="transform: none;"><g style="transform: none;"><path id="pB40tDZKe" d="M0 976 c0 -14 8 -33 18 -42 16 -17 16 -18 0 -11 -13 5 -18 1 -18 -13 0 -19 10 -24 39 -20 9 1 12 -4 8 -14 -4 -10 -1 -16 8 -16 7 0 16 -3 18 -7 3 -5 -6 -8 -19 -8 -13 0 -24 6 -24 13 0 6 -7 12 -15 12 -18 0 -21 -50 -3 -68 8 -8 8 -12 1 -12 -6 0 -11 -16 -11 -35 0 -20 5 -35 12 -35 6 0 5 -4 -4 -10 -8 -5 -12 -12 -8 -15 9 -9 98 -12 98 -3 0 4 19 7 43 6 23 -1 58 1 77 4 19 3 46 2 60 -1 15 -4 -38 -13 -128 -20 l-152 -14 0 -34 c0 -35 8 -39 73 -34 15 1 27 -2 27 -8 0 -5 -9 -8 -20 -6 -11 2 -22 0 -25 -6 -4 -5 -13 -5 -25 1 -26 14 -30 13 -30 -10 0 -11 3 -19 8 -19 26 4 62 -3 62 -12 0 -8 -12 -10 -35 -6 -30 5 -35 3 -35 -13 0 -17 6 -19 45 -15 26 3 45 1 45 -5 0 -6 -20 -10 -45 -10 -33 0 -45 -4 -45 -15 0 -8 6 -15 13 -15 8 0 14 -6 14 -14 0 -8 -6 -12 -14 -9 -7 3 -13 -2 -13 -11 0 -9 7 -16 15 -16 8 0 15 -4 15 -10 0 -5 -6 -7 -14 -4 -12 5 -14 -7 -14 -58 1 -35 6 -67 12 -71 8 -6 7 -10 -2 -14 -6 -2 -12 -18 -12 -34 0 -25 4 -29 28 -30 35 -1 69 -14 56 -22 -6 -3 -16 -2 -23 2 -12 8 -61 3 -61 -6 0 -2 5 -13 10 -24 6 -10 7 -19 2 -19 -5 0 -10 -27 -11 -60 -1 -48 2 -60 15 -60 8 0 12 5 9 10 -8 12 -8 12 35 0 22 -6 36 -6 40 0 4 7 17 6 38 -1 24 -8 36 -8 46 0 10 8 16 9 21 1 3 -5 25 -10 47 -10 45 0 44 8 -5 28 -37 14 -20 12 80 -11 45 -10 66 -10 74 -3 8 8 13 7 16 -1 3 -9 30 -13 86 -13 l82 1 -25 21 c-17 15 -19 19 -7 15 10 -4 23 -7 28 -7 5 0 9 -7 9 -15 0 -13 24 -15 163 -14 89 0 156 3 149 6 -6 2 -10 9 -7 14 4 5 22 2 42 -6 40 -17 123 -20 123 -5 0 6 -5 10 -11 10 -5 0 -8 4 -4 9 3 5 -5 12 -17 14 -16 4 -13 5 7 4 17 -1 31 -8 31 -14 1 -7 2 -16 3 -20 1 -5 17 -9 37 -10 35 -2 35 -1 32 35 -2 29 -7 36 -20 34 -10 -2 -18 2 -18 8 0 5 9 10 20 10 11 0 20 4 20 9 0 12 -29 23 -41 15 -5 -3 -17 0 -26 6 -15 9 -10 10 25 8 l42 -4 0 48 c0 39 -3 48 -17 48 -14 0 -15 -2 -4 -9 7 -5 9 -11 4 -14 -4 -3 -16 1 -26 8 -17 12 -16 14 12 20 32 7 43 25 16 25 -8 0 -15 4 -15 9 0 5 -8 12 -17 14 -15 4 -14 5 2 6 12 0 26 -4 33 -11 9 -9 12 -6 12 16 0 15 -4 25 -9 21 -5 -3 -12 -1 -16 5 -3 5 1 10 9 10 22 0 20 26 -1 35 -17 6 -17 8 2 21 17 13 18 16 5 24 -9 6 -11 13 -5 18 15 11 18 104 3 115 -10 7 -10 10 -1 14 7 2 13 20 13 38 l0 33 -55 -3 c-30 -2 -63 -6 -72 -9 -24 -8 -76 7 -81 23 -3 10 2 11 19 6 22 -7 56 -8 144 -2 l40 2 3 53 c3 47 1 52 -17 52 -12 0 -21 5 -21 11 0 6 9 9 20 6 13 -3 20 0 20 9 0 8 -6 14 -14 14 -17 0 -31 18 -22 27 3 3 12 0 21 -7 13 -11 15 -9 15 12 l0 25 -160 -3 c-145 -3 -181 2 -150 21 6 3 16 3 23 -2 6 -4 21 -6 32 -5 11 2 72 4 135 5 l114 2 2 38 3 37 -41 -5 c-31 -4 -39 -2 -35 8 9 24 -11 41 -49 44 -21 1 -41 7 -45 14 -10 17 -29 1 -22 -19 3 -11 0 -9 -11 6 -13 17 -27 22 -59 22 -38 -1 -40 -2 -24 -14 24 -19 4 -31 -23 -14 -11 7 -20 17 -20 21 0 11 -333 5 -341 -6 -3 -4 -18 -3 -33 3 -15 5 -25 6 -21 1 3 -5 0 -13 -6 -17 -6 -3 -15 -1 -19 6 -5 8 -40 12 -103 13 -54 1 -93 -2 -90 -7 3 -5 -5 -6 -18 -3 -55 13 -144 18 -129 8 12 -9 11 -11 -8 -11 -13 0 -20 4 -17 10 3 6 -1 10 -9 10 -10 0 -16 -9 -16 -24z m780 4 c-20 -13 -50 -13 -50 0 0 6 15 10 33 10 24 0 28 -3 17 -10z m135 0 c-3 -5 -13 -10 -21 -10 -8 0 -14 5 -14 10 0 6 9 10 21 10 11 0 17 -4 14 -10z m-405 -20 c0 -5 -17 -9 -37 -9 -38 1 -38 1 -8 9 43 11 45 11 45 0z m-242 -7 c-10 -2 -26 -2 -35 0 -10 3 -2 5 17 5 19 0 27 -2 18 -5z m577 -8 c41 -3 43 -18 2 -18 -19 0 -45 8 -58 17 l-24 18 25 -7 c14 -4 39 -9 55 -10z m-431 -3 c3 -5 -8 -6 -25 -4 -16 2 -29 6 -29 8 0 8 49 4 54 -4z m226 -2 c0 -5 9 -10 20 -10 11 0 20 -4 20 -9 0 -18 -17 -20 -38 -5 -23 16 -29 34 -12 34 6 0 10 -4 10 -10z m364 4 c9 -3 16 -10 16 -16 0 -14 -43 -5 -48 10 -4 13 7 15 32 6z m-684 -25 c0 -5 -7 -9 -15 -9 -15 0 -20 12 -9 23 8 8 24 -1 24 -14z m288 4 c5 -18 -10 -16 -34 2 -18 15 -18 15 5 13 14 -2 26 -9 29 -15z m146 8 c7 -11 -31 -21 -52 -14 -13 6 -13 8 4 14 26 11 42 11 48 0z m191 -2 c10 -15 2 -19 -24 -12 -17 4 -19 8 -9 14 18 12 26 11 33 -2z m-789 -9 c21 0 17 -17 -6 -23 -14 -4 -24 1 -31 15 -10 18 -9 20 6 15 9 -4 23 -7 31 -7z m344 -5 c5 3 11 1 15 -5 10 -16 -51 -12 -65 5 -11 14 -10 14 14 5 15 -5 31 -8 36 -5z m-230 -5 c13 -9 13 -10 0 -9 -8 0 -24 4 -35 9 l-20 9 20 0 c11 0 27 -4 35 -9z m124 1 c3 -5 -5 -11 -19 -13 -14 -3 -26 0 -29 8 -6 16 39 20 48 5z m376 -41 c0 -10 -93 -10 -109 0 -10 6 -8 10 9 15 13 4 25 3 30 -4 8 -13 40 -4 40 11 0 6 6 5 15 -2 8 -7 15 -16 15 -20z m100 20 c0 -5 -9 -10 -21 -10 -11 0 -17 5 -14 10 3 6 13 10 21 10 8 0 14 -4 14 -10z m194 2 c63 -3 33 -15 -36 -14 -91 0 -100 1 -94 10 5 8 24 9 130 4z m-964 -13 c0 -7 28 -9 85 -5 49 3 85 1 85 -4 0 -5 -17 -9 -37 -9 -21 1 -58 -2 -83 -6 -39 -6 -47 -4 -58 14 -7 13 -8 21 -2 21 5 0 10 -5 10 -11z m450 -16 c0 -9 -6 -12 -17 -9 -27 8 -109 8 -183 0 -36 -3 -62 -3 -58 1 10 10 106 21 191 22 53 1 67 -2 67 -14z m89 13 c-9 -9 -69 -14 -63 -5 3 5 19 9 36 9 17 0 29 -2 27 -4z m-34 -36 c-3 -5 0 -10 9 -10 8 0 17 6 19 13 4 8 6 7 6 -4 1 -8 16 -23 34 -32 l32 -16 -32 0 c-18 -1 -33 3 -33 8 0 14 -39 24 -85 23 -36 -1 -37 0 -16 9 14 5 31 7 38 5 7 -3 13 -1 13 4 0 6 5 10 11 10 5 0 7 -4 4 -10z m-295 -20 c0 -14 -49 -18 -54 -4 -2 6 -3 14 0 17 7 7 54 -4 54 -13z m135 -9 c-8 -7 -56 10 -50 18 3 5 16 4 29 -2 14 -7 23 -14 21 -16z m51 14 c14 -13 13 -15 -4 -15 -10 0 -19 7 -19 15 0 8 2 15 4 15 3 0 11 -7 19 -15z m307 -18 c-3 -5 -10 -4 -16 2 -6 6 -20 12 -31 12 -14 1 -11 4 9 8 30 7 49 -4 38 -22z m-588 13 c19 -8 19 -9 -2 -9 -12 -1 -25 4 -28 9 -7 12 2 12 30 0z m870 -20 c3 -4 -24 -7 -60 -6 -36 1 -68 0 -71 -3 -7 -7 -98 -1 -107 8 -4 4 36 7 89 7 53 -1 98 2 100 6 5 8 42 -1 49 -12z m-948 -16 c-7 -7 -37 7 -37 17 0 6 9 5 21 -1 11 -7 19 -14 16 -16z m213 -8 c0 -5 -7 -3 -15 4 -8 7 -12 17 -9 22 7 10 24 -9 24 -26z m82 8 c21 0 46 -8 55 -16 10 -9 32 -18 48 -21 24 -3 21 -4 -13 -6 -30 -1 -49 5 -64 19 -12 10 -25 17 -30 14 -15 -9 -59 6 -52 17 4 6 9 7 13 3 3 -5 23 -9 43 -10z m-161 -28 c19 -24 59 -36 59 -18 0 4 12 7 28 6 15 -1 37 -3 50 -3 12 -1 22 -5 22 -9 0 -13 -123 -12 -152 1 -16 6 -28 15 -28 19 0 5 -7 8 -15 8 -8 0 -15 4 -15 8 0 5 -13 7 -29 4 -16 -2 -32 1 -35 7 -5 7 10 9 44 7 40 -3 55 -9 71 -30z m349 24 c0 -13 -11 -13 -30 0 -12 8 -11 10 8 10 12 0 22 -4 22 -10z m-515 -10 c3 -5 -3 -10 -14 -10 -12 0 -21 5 -21 10 0 6 6 10 14 10 8 0 18 -4 21 -10z m845 -13 c8 1 43 3 77 5 35 2 59 0 54 -5 -10 -10 -231 -16 -231 -6 0 10 41 17 65 11 11 -3 27 -5 35 -5z m-755 -25 c-11 -12 -93 -11 -98 1 -3 9 11 11 50 9 30 -2 52 -7 48 -10z m551 -22 c13 0 24 -4 24 -8 0 -10 -120 -6 -129 4 -3 4 1 5 10 2 9 -4 22 -2 30 3 8 5 20 7 27 4 8 -3 25 -5 38 -5z m134 -1 c0 -8 -57 -16 -83 -11 -9 2 -15 7 -13 11 6 10 96 10 96 0z m145 1 c7 11 68 5 72 -7 2 -6 -38 -9 -101 -9 -58 1 -102 4 -98 8 11 11 55 14 90 7 17 -4 34 -3 37 1z m-518 -22 c10 -11 12 -18 5 -18 -7 0 -12 5 -12 11 0 8 -18 10 -55 7 -56 -5 -78 7 -27 15 49 7 73 3 89 -15z m-132 2 c4 -6 -8 -10 -29 -10 -20 0 -36 5 -36 10 0 6 13 10 29 10 17 0 33 -4 36 -10z m240 -24 c7 3 16 1 19 -4 7 -12 -116 -23 -128 -11 -6 5 6 9 32 9 26 0 42 5 42 12 0 9 3 9 11 1 6 -6 17 -9 24 -7z m73 -9 c2 -10 -3 -17 -12 -17 -9 0 -16 5 -16 10 0 6 6 10 13 10 8 0 7 4 -3 11 -13 9 -13 10 0 6 8 -2 16 -11 18 -20z m291 11 c56 -1 101 -6 101 -11 0 -6 -35 -7 -91 -3 -77 6 -91 5 -86 -7 5 -13 1 -13 -24 0 -17 8 -41 13 -55 10 -13 -2 -24 -1 -24 4 0 7 58 17 71 12 4 -1 52 -4 108 -5z m-622 -15 c2 -4 -36 -7 -84 -6 -117 2 -122 3 -101 11 23 10 182 5 185 -5z m104 7 c16 0 29 -4 29 -8 0 -5 -17 -8 -37 -6 -21 2 -47 3 -58 4 -17 0 -17 2 -5 10 8 5 21 8 28 5 8 -3 27 -5 43 -5z m59 -49 c0 -3 -26 -7 -57 -8 -32 -1 -69 -3 -82 -5 -13 -2 -26 2 -28 8 -2 7 8 9 26 6 16 -2 36 0 45 5 17 9 96 5 96 -6z m100 9 c3 -1 -5 -5 -18 -10 -23 -10 -52 -4 -52 11 0 7 42 6 70 -1z m124 -11 c6 -5 -8 -8 -32 -6 -41 2 -49 7 -36 20 8 8 55 -2 68 -14z m66 7 c0 -9 -8 -12 -27 -8 l-28 6 25 7 c14 4 26 7 28 8 1 1 2 -5 2 -13z m-530 -7 c19 -6 13 -7 -23 -4 -27 3 -57 1 -66 -5 -10 -5 -29 -6 -42 -2 -22 6 -21 7 11 13 50 9 91 8 120 -2z m620 1 c0 -5 -11 -10 -24 -10 -14 0 -28 5 -31 10 -4 6 7 10 24 10 17 0 31 -4 31 -10z m-287 -51 c3 -11 14 -19 26 -19 24 0 96 -28 90 -34 -5 -6 -87 14 -117 27 -12 6 -20 17 -18 24 4 8 -3 13 -17 13 -17 0 -19 2 -8 9 19 12 38 4 44 -20z m77 22 c0 -14 -38 -24 -52 -14 -9 5 -3 10 17 14 17 4 31 7 33 8 1 0 2 -3 2 -8z m440 0 c0 -13 -36 -19 -115 -20 -115 0 -119 14 -5 20 58 3 108 6 113 7 4 1 7 -2 7 -7z m-868 -16 c14 0 24 -3 21 -7 -2 -5 9 -8 26 -8 16 0 31 4 33 8 2 4 14 2 28 -6 l25 -14 -27 6 c-18 4 -28 2 -28 -5 0 -7 -12 -9 -37 -5 -21 4 -57 9 -80 12 -23 4 -44 12 -47 21 -5 12 0 13 27 7 17 -5 44 -8 59 -9z m181 5 c9 0 17 -4 17 -10 0 -16 -44 -12 -66 6 -18 15 -18 15 6 10 14 -3 33 -6 43 -6z m304 -7 c3 -7 -3 -9 -16 -6 -12 3 -21 10 -21 15 0 13 32 6 37 -9z m48 6 c11 -17 2 -18 -19 -3 -17 12 -17 14 -4 14 9 0 20 -5 23 -11z m90 -6 c19 -15 19 -15 -5 -8 -14 4 -33 7 -42 8 -26 2 -22 17 5 17 12 0 31 -8 42 -17z m-765 -23 c0 -4 -6 -10 -12 -13 -8 -3 -13 4 -13 18 0 18 3 21 13 13 6 -6 12 -14 12 -18z m46 7 c4 -4 -2 -7 -14 -7 -12 0 -22 4 -22 9 0 10 26 9 36 -2z m384 -18 c-12 -9 -11 -10 8 -6 12 3 22 2 22 -2 0 -4 -32 -8 -71 -9 -44 -1 -80 -7 -94 -16 -23 -15 -35 -12 -35 8 0 11 19 14 90 17 19 0 42 5 50 10 8 4 22 8 30 9 13 0 13 -1 0 -11z m367 1 c46 0 86 0 90 1 18 3 33 -2 33 -9 0 -5 -65 -8 -145 -8 -100 1 -145 4 -145 12 0 7 16 10 43 8 23 -2 79 -4 124 -4z m183 0 c0 -5 -10 -10 -22 -10 -19 0 -20 2 -8 10 19 13 30 13 30 0z m-824 -13 c4 -4 -11 -7 -33 -7 -24 0 -46 -6 -53 -15 -9 -11 -16 -13 -24 -5 -5 5 -24 10 -41 11 -25 0 -27 1 -10 8 11 5 33 7 49 6 16 -2 37 0 49 4 23 9 54 8 63 -2z m364 -25 c22 -6 59 -13 82 -13 l43 -1 -39 -8 c-52 -10 -130 14 -132 41 0 8 1 9 3 4 2 -6 21 -16 43 -23z m-286 8 c-10 -4 -21 -6 -24 -3 -8 7 24 22 34 16 5 -4 1 -10 -10 -13z m616 -23 c0 -4 -43 -6 -95 -5 -52 2 -87 6 -77 10 23 9 172 5 172 -5z m90 6 c0 -5 -18 -9 -40 -9 -22 -1 -37 2 -34 7 6 11 74 12 74 2z m-872 -15 c23 1 42 -2 42 -8 0 -12 -126 -17 -139 -5 -11 11 14 25 32 18 12 -4 41 -6 65 -5z m260 -10 c-2 -5 -7 -9 -11 -9 -4 1 -34 1 -67 1 -38 0 -60 4 -60 11 0 8 16 10 50 5 29 -4 50 -3 50 3 0 5 9 7 20 4 12 -3 19 -10 18 -15z m153 10 c22 -6 39 -15 39 -19 0 -4 -20 -2 -44 5 -28 8 -49 10 -60 4 -16 -9 -23 2 -9 15 9 10 30 9 74 -5z m335 -31 c4 -4 -139 -1 -161 3 -5 1 4 5 20 9 28 6 132 -2 141 -12z m152 7 c14 -15 14 -16 -3 -13 -10 2 -20 10 -23 17 -5 17 6 15 26 -4z m-335 -4 c7 0 5 -5 -5 -10 -19 -12 -51 -3 -42 12 3 5 13 7 21 4 8 -3 20 -6 26 -6z m252 -1 c-8 -11 -42 -12 -49 -1 -3 5 8 9 25 10 16 0 27 -4 24 -9z m-325 -9 c0 -5 -15 -10 -32 -9 -28 0 -30 2 -13 9 28 12 45 12 45 0z m-489 -9 c34 21 99 0 99 -32 0 -6 -7 -3 -16 5 -16 17 -94 23 -94 8 0 -10 -87 1 -98 13 -4 4 5 5 20 1 15 -3 30 -2 33 4 4 6 13 7 24 1 10 -6 23 -6 32 0z m299 -2 c0 -5 -12 -9 -27 -10 -16 0 -47 -3 -70 -5 -25 -3 -43 -1 -43 5 0 9 35 15 108 18 17 0 32 -3 32 -8z m120 -1 c0 -9 -15 -9 -50 2 -22 7 -20 8 13 7 20 0 37 -4 37 -9z m170 -22 c0 -8 6 -17 13 -20 6 -4 1 -3 -13 0 -14 3 -35 6 -47 6 -32 0 -29 16 5 21 15 2 30 5 35 6 4 0 7 -5 7 -13z m113 7 c3 -5 -17 -9 -44 -10 -27 -1 -49 2 -49 7 0 12 87 14 93 3z m62 -4 c10 -14 1 -21 -19 -13 -9 3 -13 10 -10 15 7 12 21 11 29 -2z m89 1 c14 -5 26 -14 26 -19 0 -10 -39 -3 -56 11 -6 4 -20 5 -29 1 -13 -4 -16 -3 -11 5 9 15 36 15 70 2z m-356 -20 c3 -11 1 -12 -7 -4 -13 12 -150 7 -167 -7 -11 -9 -24 -2 -24 12 0 9 54 14 139 14 39 0 55 -4 59 -15z m-538 -11 c12 -8 8 -10 -17 -6 -21 2 -34 -1 -38 -10 -3 -10 -12 -12 -27 -8 -38 12 -47 28 -11 20 18 -3 34 -2 38 4 8 14 36 14 55 0z m100 1 c0 -5 -12 -10 -27 -9 -25 0 -26 1 -8 9 27 12 35 12 35 0z m115 0 l20 -9 -20 0 c-11 0 -29 4 -40 9 l-20 9 20 0 c11 0 29 -4 40 -9z m100 -2 c3 -3 -5 -8 -19 -10 -14 -3 -27 0 -29 6 -5 12 38 15 48 4z m195 -18 c20 -7 16 -8 -22 -9 -27 -1 -48 4 -48 9 0 12 34 12 70 0z m230 0 c0 -5 -15 -10 -32 -9 -31 1 -32 1 -8 9 35 11 40 11 40 0z m84 1 c3 -4 -12 -8 -34 -8 -22 0 -40 4 -40 8 0 5 15 9 34 9 19 0 37 -4 40 -9z m114 0 c6 -1 12 -5 12 -10 0 -6 -12 -6 -31 -1 -39 12 -51 22 -18 16 13 -2 30 -5 37 -5z m-268 -11 c0 -6 -20 -10 -45 -10 -59 0 -58 14 0 17 25 1 45 -2 45 -7z m-556 -8 c13 -8 -67 -19 -106 -13 -15 2 -26 6 -24 10 6 9 117 12 130 3z m215 -1 c9 -6 10 -11 2 -15 -6 -4 -16 -4 -23 0 -18 11 -111 5 -121 -9 -6 -9 -7 -8 -4 3 6 24 116 40 146 21z m56 -1 c3 -5 -3 -10 -15 -10 -12 0 -18 5 -15 10 3 6 10 10 15 10 5 0 12 -4 15 -10z m-225 -22 c0 -13 -23 -5 -28 10 -2 7 2 10 12 6 9 -3 16 -11 16 -16z m637 -4 c-9 -9 -28 6 -21 18 4 6 10 6 17 -1 6 -6 8 -13 4 -17z m-822 6 c7 -12 -12 -12 -40 0 -18 8 -17 9 7 9 15 1 30 -3 33 -9z m480 -20 c-29 -10 -47 -2 -32 15 9 9 17 10 32 2 19 -10 19 -10 0 -17z m64 18 c-4 -37 1 -49 20 -43 11 3 22 1 26 -5 3 -5 -2 -10 -13 -10 -11 0 -34 -3 -51 -6 -21 -4 -31 -3 -31 5 0 8 8 10 21 6 20 -7 21 -5 15 29 -5 23 -3 36 4 36 6 0 10 -6 9 -12z m211 0 c0 -4 -11 -8 -24 -8 -13 0 -44 -3 -70 -6 -30 -5 -46 -3 -46 4 0 10 36 16 113 18 15 0 27 -3 27 -8z m210 -7 c0 -3 -21 -6 -47 -5 -72 2 -85 3 -80 12 6 9 127 3 127 -7z m-360 -1 c0 -12 -8 -12 -35 0 -18 8 -17 9 8 9 15 1 27 -3 27 -9z m-450 -8 c0 -5 41 -7 90 -5 50 2 90 -1 90 -5 0 -5 -79 -9 -175 -10 -96 0 -179 -3 -183 -6 -5 -3 -9 1 -9 10 0 11 16 14 78 12 43 -1 82 1 85 5 10 10 24 9 24 -1z m255 -11 c2 -4 -11 -7 -30 -7 -21 0 -31 4 -28 12 4 11 50 7 58 -5z m342 -17 c0 -10 -13 -14 -46 -13 -59 2 -76 12 -31 19 63 9 77 8 77 -6z m182 5 c29 -10 43 -29 21 -29 -5 0 -10 5 -10 10 0 6 -3 9 -7 9 -5 -1 -24 -1 -43 1 -29 1 -32 3 -15 10 11 5 20 9 21 9 1 1 15 -4 33 -10z m-123 -24 c18 -9 23 -15 12 -15 -24 0 -48 11 -48 21 0 12 3 12 36 -6z m-676 -7 c0 -4 -36 -8 -80 -8 -44 0 -80 4 -80 9 0 4 36 8 80 8 44 -1 80 -4 80 -9z m219 -2 c7 -8 -22 -11 -100 -11 -60 0 -109 3 -109 7 0 16 196 20 209 4z m-410 -12 c-5 -7 -19 -10 -29 -7 -26 7 -18 18 13 18 18 0 23 -3 16 -11z m461 6 c0 -5 7 -10 15 -10 8 0 15 -4 15 -9 0 -13 -37 -2 -51 15 -9 11 -8 14 5 14 9 0 16 -4 16 -10z m78 -12 c8 -8 18 -8 34 -2 13 6 37 7 53 3 38 -9 33 -10 -42 -15 -47 -3 -62 0 -67 11 -6 18 5 20 22 3z m285 -2 c22 -17 22 -21 -3 -23 -11 -1 -20 3 -20 9 0 7 -21 9 -65 4 -40 -4 -65 -3 -65 3 0 9 37 16 105 19 17 1 38 -5 48 -12z m102 -6 c4 -6 -5 -10 -19 -10 -14 0 -26 5 -26 10 0 6 9 10 19 10 11 0 23 -4 26 -10z m-861 -9 c11 -4 36 -5 56 -1 24 4 37 3 37 -4 0 -18 -112 -19 -127 -1 -14 17 0 20 34 6z m249 -2 c19 1 26 -2 21 -10 -8 -14 -82 -5 -98 12 -8 9 -4 10 19 4 17 -4 43 -7 58 -6z m681 -1 c-3 -5 8 -11 25 -14 17 -4 28 -11 25 -16 -8 -12 -45 0 -66 23 -17 17 -17 18 2 16 10 -1 16 -5 14 -9z m-529 -18 c19 -8 19 -9 -2 -9 -12 -1 -25 4 -28 9 -7 12 2 12 30 0z m260 -7 c53 -5 64 -8 44 -13 -26 -8 -208 5 -217 15 -7 7 89 6 173 -2z m159 -4 c-6 -11 -61 -12 -68 -1 -2 4 13 8 35 8 21 1 36 -2 33 -7z m83 -3 c3 -3 -8 -6 -25 -6 -17 0 -33 4 -36 9 -6 10 51 8 61 -3z m-714 -19 c15 0 27 -4 27 -10 0 -6 -19 -7 -52 -2 -65 10 -93 13 -138 15 l-35 2 30 7 c17 4 55 3 85 -2 30 -5 67 -9 83 -10z m197 2 c22 -6 20 -7 -13 -8 -21 -1 -47 4 -58 9 -10 6 -19 7 -19 3 0 -4 -13 -8 -30 -8 -40 0 -38 13 3 17 34 4 76 0 117 -13z m85 11 c-3 -5 -13 -10 -21 -10 -8 0 -12 5 -9 10 3 6 13 10 21 10 8 0 12 -4 9 -10z m-485 -20 c0 -5 -3 -10 -7 -11 -5 0 -18 -2 -30 -3 -13 -2 -23 1 -23 5 0 7 10 10 53 18 4 0 7 -3 7 -9z m494 -15 c10 -8 23 -12 27 -9 5 3 9 -2 9 -10 0 -23 -15 -20 -47 9 -30 26 -21 34 11 10z m242 -3 c-7 -12 -76 -14 -76 -2 0 5 17 10 38 12 43 3 46 3 38 -10z m155 -19 c12 -32 12 -33 -5 -33 -9 0 -12 8 -8 27 5 25 3 26 -26 20 -33 -7 -65 0 -58 12 3 4 23 5 46 3 33 -3 43 -9 51 -29z m-241 16 c0 -7 -15 -9 -40 -6 -58 6 -62 17 -7 17 27 0 47 -5 47 -11z m-480 -9 c22 -7 21 -8 -12 -9 -20 -1 -40 4 -43 9 -7 12 19 12 55 0z m115 -12 c-22 -5 -51 -5 -65 -1 -21 6 -17 8 25 13 64 7 92 -2 40 -12z m85 12 c0 -5 -9 -10 -21 -10 -11 0 -17 5 -14 10 3 6 13 10 21 10 8 0 14 -4 14 -10z m-280 -9 c0 -4 -16 -7 -36 -5 -20 1 -46 -1 -58 -5 -11 -5 -30 -5 -41 -1 -19 7 -18 8 5 12 44 9 130 8 130 -1z m370 -31 c-8 -6 -23 -10 -32 -10 -9 0 -25 -3 -35 -7 -10 -3 -15 -2 -10 3 10 11 80 32 87 27 2 -2 -2 -8 -10 -13z m104 14 c9 -3 13 -10 10 -15 -8 -14 -21 -11 -28 6 -6 17 -4 18 18 9z m-430 -13 c3 -5 -12 -8 -34 -7 -21 0 -33 4 -27 8 16 10 55 10 61 -1z m226 2 c0 -5 -20 -9 -45 -10 -25 -1 -45 2 -45 7 0 6 20 10 45 10 25 0 45 -3 45 -7z m280 -19 c0 -8 7 -14 15 -14 8 0 15 -4 15 -10 0 -15 -21 -12 -42 7 -22 20 -24 45 -3 37 8 -4 15 -12 15 -20z m105 16 c7 -12 -2 -12 -30 0 -19 8 -19 9 2 9 12 1 25 -3 28 -9z m-722 -14 c4 -9 -2 -13 -16 -12 -11 1 -22 7 -25 14 -5 17 34 16 41 -2z m222 5 c3 -5 2 -12 -2 -14 -13 -7 -73 4 -73 14 0 12 67 12 75 0z m294 -7 c2 -2 -10 -4 -27 -4 -18 0 -32 5 -32 10 0 9 47 4 59 -6z m296 5 c11 -17 0 -20 -21 -4 -17 13 -17 14 -2 15 9 0 20 -5 23 -11z m-868 -13 c3 -3 -8 -6 -25 -6 -18 0 -32 4 -32 9 0 10 47 8 57 -3z m763 -21 c0 -12 -29 -3 -34 10 -4 13 -2 14 14 5 11 -6 20 -13 20 -15z m270 15 c-19 -13 -30 -13 -30 0 0 6 10 10 23 10 18 0 19 -2 7 -10z m-590 -10 c0 -4 -18 -7 -40 -8 -22 -1 -40 2 -40 7 0 4 18 8 40 8 22 0 40 -3 40 -7z"></path><path id="p1ERnY1BvR" d="M1050 994 c9 -3 20 -15 25 -27 13 -29 69 -38 63 -10 -2 10 -10 19 -18 19 -33 3 -34 7 -5 14 24 6 20 8 -25 8 -30 0 -48 -2 -40 -4z"></path></g></g><g id="l504k4k7IVR8xfu2pTKMuXS" fill="rgb(234,223,202)" style="transform: none;"><g style="transform: none;"><path id="pWmASLdu6" d="M800 972 c0 -5 7 -13 16 -16 10 -4 14 -1 12 6 -5 15 -28 23 -28 10z"></path><path id="pJ97FUKFO" d="M465 940 l-30 -8 33 -1 c17 0 32 4 32 9 0 6 -1 9 -2 9 -2 -1 -16 -5 -33 -9z"></path><path id="pR1ib5767" d="M670 940 c-12 -8 -12 -10 5 -10 11 0 27 5 35 10 12 8 12 10 -5 10 -11 0 -27 -5 -35 -10z"></path><path id="pz7M8P7w5" d="M233 933 c9 -2 25 -2 35 0 9 3 1 5 -18 5 -19 0 -27 -2 -17 -5z"></path><path id="pFR9siMvn" d="M686 912 c-3 -6 1 -13 10 -16 23 -9 28 -2 10 13 -8 7 -17 8 -20 3z"></path><path id="pXDJhcxp5" d="M955 910 c-4 -6 7 -10 26 -10 18 0 29 3 25 7 -11 11 -45 13 -51 3z"></path><path id="p15nHuMhY5" d="M1025 910 c-4 -6 5 -10 22 -9 15 1 37 -2 48 -5 20 -8 20 -7 1 8 -22 18 -62 21 -71 6z"></path><path id="pcfZgRzun" d="M210 900 c0 -15 58 -22 77 -10 15 10 16 11 1 6 -9 -3 -31 -1 -47 4 -17 5 -31 5 -31 0z"></path><path id="p1hgkzDt5" d="M435 900 c-5 -9 53 -25 61 -17 3 3 -9 9 -25 15 -17 6 -33 7 -36 2z"></path><path id="p1EdFSOwOl" d="M831 906 c2 -2 24 -6 48 -9 29 -4 40 -2 30 4 -13 8 -88 14 -78 5z"></path><path id="p1Chx1xylz" d="M100 880 c0 -5 7 -10 15 -10 8 0 15 5 15 10 0 6 -7 10 -15 10 -8 0 -15 -4 -15 -10z"></path><path id="pnK7wSNyI" d="M835 870 c-3 -5 0 -10 9 -10 8 0 23 -3 33 -6 16 -6 16 -5 -2 9 -24 19 -32 21 -40 7z"></path><path id="pJCpsMQfE" d="M990 872 c0 -5 7 -13 16 -16 10 -4 14 -1 12 6 -5 15 -28 23 -28 10z"></path><path id="p16Z9M2emD" d="M940 860 c8 -5 22 -10 30 -10 13 0 13 1 0 10 -8 5 -22 10 -30 10 -13 0 -13 -1 0 -10z"></path><path id="p1BLzs9uFz" d="M500 844 c0 -15 26 -19 34 -5 3 5 -3 11 -14 14 -13 3 -20 0 -20 -9z"></path><path id="pGZEAciCW" d="M635 850 c40 -10 105 -12 105 -2 0 4 -31 8 -68 8 -48 1 -59 0 -37 -6z"></path><path id="pWoWOwjFO" d="M292 841 c-10 -6 -7 -10 12 -13 14 -3 23 -2 21 3 -3 4 1 10 7 12 7 3 4 6 -7 6 -11 0 -26 -3 -33 -8z"></path><path id="pRvvLtPlA" d="M854 818 c-3 -4 6 -8 20 -8 14 0 26 4 26 8 0 4 -9 8 -21 8 -11 0 -23 -4 -25 -8z"></path><path id="p1U8LITU5" d="M910 822 c0 -4 25 -8 55 -9 30 0 52 3 49 8 -6 11 -104 12 -104 1z"></path><path id="pQIkBqmXV" d="M1042 825 c8 -9 98 -11 98 -3 0 4 -23 8 -52 8 -28 0 -49 -2 -46 -5z"></path><path id="palKVLldW" d="M745 810 c3 -5 13 -10 21 -10 8 0 12 5 9 10 -3 6 -13 10 -21 10 -8 0 -12 -4 -9 -10z"></path><path id="pe2IqdBxo" d="M581 806 c12 -10 60 -16 54 -6 -3 5 -18 10 -32 10 -15 0 -24 -2 -22 -4z"></path><path id="pKKEnnFL3" d="M970 775 c0 -7 14 -9 35 -7 19 2 35 5 35 7 0 2 -16 5 -35 7 -21 2 -35 0 -35 -7z"></path><path id="p2mkQtB81" d="M495 772 c6 -5 21 -13 35 -17 17 -5 22 -4 15 3 -5 5 -21 13 -35 17 -17 5 -22 4 -15 -3z"></path><path id="pXy10kzsQ" d="M870 776 c0 -2 15 -6 34 -8 19 -2 32 0 30 4 -5 8 -64 12 -64 4z"></path><path id="p85cspFPb" d="M280 761 c0 -5 7 -12 16 -15 24 -9 28 -7 14 9 -14 17 -30 20 -30 6z"></path><path id="pn5Me83Wl" d="M131 756 c10 -8 89 -13 83 -5 -3 5 -24 9 -46 9 -23 0 -39 -2 -37 -4z"></path><path id="p13V9XdJOb" d="M368 753 c12 -2 32 -2 45 0 12 2 2 4 -23 4 -25 0 -35 -2 -22 -4z"></path><path id="pys1jO1cm" d="M800 728 c0 -10 49 -9 75 2 14 5 6 7 -27 6 -27 0 -48 -4 -48 -8z"></path><path id="pjk0Lfop1" d="M1025 730 c3 -5 13 -10 21 -10 8 0 14 5 14 10 0 6 -9 10 -21 10 -11 0 -17 -4 -14 -10z"></path><path id="p1ATrB9ho9" d="M345 710 c27 -12 35 -12 35 0 0 6 -12 10 -27 9 -25 0 -26 -1 -8 -9z"></path><path id="pmvem2Zqp" d="M4 698 c-3 -4 6 -8 20 -8 14 0 26 4 26 8 0 4 -9 8 -21 8 -11 0 -23 -4 -25 -8z"></path><path id="pSItpHxv5" d="M824 689 c-5 -9 -2 -11 9 -6 10 4 28 1 42 -5 18 -8 31 -8 47 0 21 10 21 11 -12 11 -19 1 -45 4 -56 7 -13 3 -25 0 -30 -7z"></path><path id="pfzwJAtMy" d="M195 680 c-16 -7 -11 -9 20 -9 29 -1 36 2 25 9 -17 11 -19 11 -45 0z"></path><path id="p153QIWbGR" d="M395 680 c-37 -7 -35 -7 23 -9 40 0 61 3 57 9 -7 11 -19 11 -80 0z"></path><path id="p12moI0TQi" d="M615 680 c-18 -8 -17 -9 8 -9 16 -1 26 3 22 9 -3 6 -7 10 -8 9 -1 0 -11 -4 -22 -9z"></path><path id="pUBjhJWU3" d="M715 679 c-16 -7 -15 -8 7 -6 15 2 30 5 33 8 8 8 -18 7 -40 -2z"></path><path id="p4BQz6FCr" d="M1055 680 c-3 -5 3 -10 15 -10 12 0 18 5 15 10 -3 6 -10 10 -15 10 -5 0 -12 -4 -15 -10z"></path><path id="pprNh0Dcw" d="M960 640 c0 -6 20 -10 45 -10 59 0 58 14 0 17 -25 1 -45 -2 -45 -7z"></path><path id="poVnlkWv7" d="M171 631 c-8 -5 14 -7 55 -4 38 3 71 7 73 9 9 8 -115 3 -128 -5z"></path><path id="p13NQNrEqu" d="M382 632 c-6 -5 26 -8 73 -8 47 1 85 4 85 9 0 10 -142 9 -158 -1z"></path><path id="pmB4RL8Dg" d="M928 599 c-17 -11 25 -14 107 -8 47 3 65 7 43 8 -71 6 -140 6 -150 0z"></path><path id="pn691N2b5" d="M530 596 c0 -2 11 -6 25 -8 14 -3 25 -1 25 3 0 5 -11 9 -25 9 -14 0 -25 -2 -25 -4z"></path><path id="p1AvbPqx7P" d="M830 590 c-12 -8 -11 -10 8 -10 12 0 22 5 22 10 0 13 -11 13 -30 0z"></path><path id="pXgZEyDch" d="M0 568 c0 -4 16 -8 35 -8 19 0 38 0 42 -1 4 0 9 3 10 8 2 4 -17 8 -42 9 -25 0 -45 -3 -45 -8z"></path><path id="pcTuSWHgF" d="M636 551 c13 -12 74 -22 74 -12 0 10 -34 21 -64 21 -12 0 -16 -3 -10 -9z"></path><path id="phy0OwcwT" d="M980 548 c0 -10 127 -11 134 0 2 4 -27 8 -65 8 -38 0 -69 -4 -69 -8z"></path><path id="ptBwTyaK3" d="M458 544 c-3 -3 -21 -6 -39 -6 -19 -1 -28 -3 -21 -5 6 -3 9 -10 6 -16 -5 -8 -2 -8 7 1 7 6 23 12 36 12 13 0 23 5 23 10 0 11 -4 13 -12 4z"></path><path id="p16U1oioBd" d="M920 540 c0 -5 9 -10 21 -10 11 0 17 5 14 10 -3 6 -13 10 -21 10 -8 0 -14 -4 -14 -10z"></path><path id="p1DXd3ZKG1" d="M218 533 c12 -2 30 -2 40 0 9 3 -1 5 -23 4 -22 0 -30 -2 -17 -4z"></path><path id="p16CLBZXpy" d="M10 520 c-12 -8 -9 -10 13 -10 15 0 27 5 27 10 0 13 -20 13 -40 0z"></path><path id="p6F1FwLNg" d="M280 521 c0 -5 7 -11 15 -15 9 -3 15 0 15 9 0 8 -7 15 -15 15 -8 0 -15 -4 -15 -9z"></path><path id="pU649Vg6U" d="M823 503 c9 -2 25 -2 35 0 9 3 1 5 -18 5 -19 0 -27 -2 -17 -5z"></path><path id="pQkOuOdKE" d="M896 499 c7 -11 64 -12 64 -1 0 4 -16 8 -35 9 -19 1 -32 -3 -29 -8z"></path><path id="pWU4BX6xo" d="M970 498 c0 -11 22 -10 40 2 11 8 9 9 -12 8 -16 -1 -28 -6 -28 -10z"></path><path id="p1CPm7Z0Yc" d="M195 490 c-3 -5 0 -10 9 -10 8 0 23 -3 33 -7 16 -6 16 -5 4 10 -15 19 -37 22 -46 7z"></path><path id="plFZepgjZ" d="M425 491 c-2 -5 4 -11 15 -14 11 -3 20 -2 20 3 0 12 -28 21 -35 11z"></path><path id="ppS4uRfhU" d="M640 461 c19 -10 37 -17 39 -15 8 8 -34 33 -54 34 -14 0 -10 -5 15 -19z"></path><path id="p5vVWYgye" d="M220 440 l-25 -8 27 -1 c15 -1 30 4 33 9 7 11 0 11 -35 0z"></path><path id="p148OcNFJ9" d="M430 440 c-24 -8 -23 -8 8 -9 17 -1 32 4 32 9 0 11 -5 11 -40 0z"></path><path id="pnN2yP0wl" d="M487 439 c8 -8 16 -8 30 0 16 9 14 10 -11 11 -22 0 -27 -3 -19 -11z"></path><path id="py1HschhC" d="M778 418 c9 -9 15 -9 24 0 9 9 7 12 -12 12 -19 0 -21 -3 -12 -12z"></path><path id="pcjd7BNJA" d="M833 423 c9 -2 25 -2 35 0 9 3 1 5 -18 5 -19 0 -27 -2 -17 -5z"></path><path id="pABHayxhL" d="M615 410 c-7 -12 12 -12 40 0 18 8 17 9 -7 9 -15 1 -30 -3 -33 -9z"></path><path id="p14lBdMvXO" d="M64 397 c-8 -9 2 -13 43 -14 34 -2 52 1 48 7 -3 6 -17 7 -30 4 -12 -3 -26 -1 -29 5 -9 14 -18 13 -32 -2z"></path><path id="pFsUMdyQx" d="M740 369 c0 -5 11 -9 25 -9 14 0 25 2 25 4 0 2 -11 6 -25 8 -14 3 -25 1 -25 -3z"></path><path id="pC6wddYEh" d="M285 360 c6 -10 3 -12 -13 -8 -12 4 -22 2 -22 -3 0 -12 37 -12 45 0 3 5 0 13 -6 17 -8 5 -9 3 -4 -6z"></path><path id="pVXUd1ea9" d="M106 349 c3 -5 26 -9 51 -9 26 0 44 2 42 4 -9 8 -98 13 -93 5z"></path><path id="p10xh5aPRn" d="M322 348 c16 -10 138 -11 138 0 0 4 -34 7 -75 8 -41 0 -69 -3 -63 -8z"></path><path id="p1ltJlPIB" d="M470 352 c0 -15 11 -21 27 -15 12 5 12 7 1 14 -17 11 -28 11 -28 1z"></path><path id="pj85vVYJv" d="M880 330 c0 -5 10 -10 23 -10 18 0 19 2 7 10 -19 13 -30 13 -30 0z"></path><path id="p89sTILC9" d="M1030 329 c0 -6 -9 -8 -22 -4 -18 5 -20 4 -7 -4 18 -12 62 -3 53 10 -7 12 -24 11 -24 -2z"></path><path id="pEYy7uizU" d="M766 320 c7 -7 24 -7 50 -1 l39 9 -49 1 c-34 1 -47 -2 -40 -9z"></path><path id="pwpEwb7at" d="M490 309 c0 -5 11 -9 25 -9 14 0 25 2 25 4 0 2 -11 6 -25 8 -14 3 -25 1 -25 -3z"></path><path id="pVCS01otn" d="M120 299 c-17 -5 -2 -7 43 -5 37 2 70 6 73 9 9 9 -87 5 -116 -4z"></path><path id="p8N5gwcDO" d="M350 300 c0 -10 99 -10 105 0 2 4 -20 7 -50 8 -30 0 -55 -4 -55 -8z"></path><path id="p1BftNl78I" d="M722 281 c-9 -5 -2 -8 20 -9 23 -1 28 2 18 8 -18 12 -22 12 -38 1z"></path><path id="pLq0z4jth" d="M930 268 c0 -12 7 -18 23 -17 15 0 17 2 7 6 -8 3 -18 11 -22 17 -5 7 -8 4 -8 -6z"></path><path id="pd9xXYNmH" d="M190 260 c0 -5 7 -10 15 -10 8 0 15 5 15 10 0 6 -7 10 -15 10 -8 0 -15 -4 -15 -10z"></path><path id="pdZOqvsEY" d="M244 258 c-3 -4 19 -8 48 -7 57 1 55 5 -5 11 -21 2 -40 0 -43 -4z"></path><path id="pNk3neNKJ" d="M350 260 c0 -6 12 -10 27 -10 29 0 24 12 -7 17 -11 2 -20 -2 -20 -7z"></path><path id="pkMhPibMU" d="M415 260 c3 -5 22 -10 41 -10 21 0 33 4 29 10 -3 6 -22 10 -41 10 -21 0 -33 -4 -29 -10z"></path><path id="pfGjjONgb" d="M793 242 c-7 -5 4 -8 27 -9 22 -1 40 2 40 8 0 11 -50 12 -67 1z"></path><path id="pyvMBzmuz" d="M106 222 c-8 -13 52 -21 84 -11 22 7 21 7 -12 8 -20 1 -43 4 -51 7 -8 3 -18 1 -21 -4z"></path><path id="peaNaOimw" d="M310 220 c0 -5 6 -10 13 -10 6 0 29 -3 50 -6 22 -4 37 -3 37 4 0 5 -10 10 -22 10 -13 0 -35 3 -50 6 -17 4 -28 2 -28 -4z"></path><path id="pxDFr6bJw" d="M5 200 c3 -5 13 -10 21 -10 8 0 12 5 9 10 -3 6 -13 10 -21 10 -8 0 -12 -4 -9 -10z"></path><path id="p17oj6odsv" d="M1070 206 c0 -2 7 -9 15 -16 12 -10 15 -10 15 4 0 9 -7 16 -15 16 -8 0 -15 -2 -15 -4z"></path><path id="pZ4Vdvmh1" d="M654 193 c10 -10 46 -11 46 -1 0 4 -12 8 -27 8 -14 0 -23 -3 -19 -7z"></path><path id="p19tVGqy8O" d="M725 190 c11 -5 36 -8 55 -8 l35 0 -30 8 c-16 4 -41 8 -55 8 -23 1 -23 0 -5 -8z"></path><path id="p1AdH2YVFy" d="M740 140 c0 -11 31 -11 75 0 26 7 22 8 -22 9 -30 0 -53 -3 -53 -9z"></path><path id="pTNQcAuYp" d="M213 134 c3 -4 23 -8 44 -10 28 -3 34 -2 23 6 -16 11 -77 14 -67 4z"></path><path id="p7da58dhh" d="M444 133 c10 -10 72 -13 101 -5 23 7 15 8 -38 9 -37 0 -66 -2 -63 -4z"></path><path id="p14vqf25cG" d="M1050 110 c0 -12 28 -25 36 -17 3 3 -4 10 -15 17 -15 7 -21 7 -21 0z"></path><path id="pkiOoFImP" d="M676 96 c21 -15 30 -14 19 3 -3 6 -14 11 -23 11 -13 0 -13 -2 4 -14z"></path><path id="pi5suhdbk" d="M600 85 c7 -8 24 -15 39 -15 25 1 25 1 -8 15 -42 19 -47 19 -31 0z"></path><path id="pWEVJ77oO" d="M88 83 c-10 -2 -18 -9 -18 -15 0 -5 7 -7 16 -4 9 3 20 6 25 6 5 0 9 5 9 10 0 10 -3 11 -32 3z"></path><path id="p1iK5bMeO" d="M345 80 c3 -5 13 -10 21 -10 8 0 14 5 14 10 0 6 -9 10 -21 10 -11 0 -17 -4 -14 -10z"></path><path id="p08bW09AJ" d="M770 51 c0 -4 11 -6 25 -3 14 2 25 6 25 8 0 2 -11 4 -25 4 -14 0 -25 -4 -25 -9z"></path><path id="pIn3pD9Ql" d="M299 29 c16 -6 28 -6 35 1 7 7 -1 10 -24 9 -33 0 -34 -1 -11 -10z"></path><path id="pzXzCsKAu" d="M718 3 c12 -2 30 -2 40 0 9 3 -1 5 -23 4 -22 0 -30 -2 -17 -4z"></path></g></g><g id="l2sUVIrgzx9H9SqL51mGD8P" fill="rgb(229,215,191)" style="transform: none;"><g style="transform: none;"><path id="pTtlZnwr8" d="M450 890 c20 -13 43 -13 35 0 -3 6 -16 10 -28 10 -18 0 -19 -2 -7 -10z"></path><path id="pm5yomDbb" d="M979 777 c5 -5 19 -7 32 -5 20 3 19 5 -9 9 -20 3 -29 2 -23 -4z"></path><path id="pMpJXeZ8s" d="M970 640 c0 -5 14 -10 32 -10 36 0 35 4 -4 14 -17 4 -28 2 -28 -4z"></path><path id="pZPa9xLOu" d="M630 556 c0 -2 11 -6 25 -8 14 -3 25 -1 25 3 0 5 -11 9 -25 9 -14 0 -25 -2 -25 -4z"></path><path id="pIsEWvA5U" d="M620 370 c0 -5 10 -10 23 -10 18 0 19 2 7 10 -19 13 -30 13 -30 0z"></path><path id="p285rORgI" d="M110 350 c8 -5 28 -10 44 -10 39 0 30 6 -19 13 -27 4 -35 3 -25 -3z"></path><path id="p145fDgHQp" d="M723 3 c9 -2 25 -2 35 0 9 3 1 5 -18 5 -19 0 -27 -2 -17 -5z"></path></g></g></svg>